{
  "accessors": [
    {
      "bufferView": 2,
      "componentType": 5126,
      "count": 65532,
      "max": [
        4.834969520568848,
        1.0587611198425293,
        5.039586067199707
      ],
      "min": [
        -5.022426128387451,
        -0.3507753610610962,
        -4.886819362640381
      ],
      "type": "VEC3"
    },
    {
      "bufferView": 2,
      "byteOffset": 786384,
      "componentType": 5126,
      "count": 65532,
      "max": [
        0.9999687671661377,
        0.999997615814209,
        0.9999963045120239
      ],
      "min": [
        -0.999964714050293,
        -0.9969393014907837,
        -0.9998173713684082
      ],
      "type": "VEC3"
    },
    {
      "bufferView": 1,
      "componentType": 5126,
      "count": 65532,
      "max": [
        0.9953744411468506,
        0.9995798468589783
      ],
      "min": [
        0.0004869996337220073,
        0.0006306171417236328
      ],
      "type": "VEC2"
    },
    {
      "bufferView": 0,
      "componentType": 5125,
      "count": 274683,
      "type": "SCALAR"
    },
    {
      "bufferView": 2,
      "byteOffset": 1572768,
      "componentType": 5126,
      "count": 65532,
      "max": [
        4.874624252319336,
        1.0587611198425293,
        4.988378524780273
      ],
      "min": [
        -5.0534515380859375,
        -0.3496292233467102,
        -4.960413932800293
      ],
      "type": "VEC3"
    },
    {
      "bufferView": 2,
      "byteOffset": 2359152,
      "componentType": 5126,
      "count": 65532,
      "max": [
        0.9999998807907104,
        0.999997615814209,
        0.999934732913971
      ],
      "min": [
        -0.9999932646751404,
        -0.9924058318138123,
        -0.999947190284729
      ],
      "type": "VEC3"
    },
    {
      "bufferView": 1,
      "byteOffset": 524256,
      "componentType": 5126,
      "count": 65532,
      "max": [
        0.9996532201766968,
        0.9995617866516113
      ],
      "min": [
        0.0003250607696827501,
        0.0008203983306884766
      ],
      "type": "VEC2"
    },
    {
      "bufferView": 0,
      "byteOffset": 1098732,
      "componentType": 5125,
      "count": 259884,
      "type": "SCALAR"
    },
    {
      "bufferView": 2,
      "byteOffset": 3145536,
      "componentType": 5126,
      "count": 65534,
      "max": [
        4.897760391235352,
        1.0221556425094604,
        5.008640289306641
      ],
      "min": [
        -5.0476202964782715,
        -0.36264127492904663,
        -4.957511901855469
      ],
      "type": "VEC3"
    },
    {
      "bufferView": 2,
      "byteOffset": 3931944,
      "componentType": 5126,
      "count": 65534,
      "max": [
        0.9999405145645142,
        0.9999955296516418,
        0.999976634979248
      ],
      "min": [
        -0.9999932646751404,
        -0.9989303350448608,
        -0.9999247789382935
      ],
      "type": "VEC3"
    },
    {
      "bufferView": 1,
      "byteOffset": 1048512,
      "componentType": 5126,
      "count": 65534,
      "max": [
        0.99966961145401,
        0.9995537996292114
      ],
      "min": [
        0.0003413078957237303,
        0.0005511641502380371
      ],
      "type": "VEC2"
    },
    {
      "bufferView": 0,
      "byteOffset": 2138268,
      "componentType": 5125,
      "count": 236277,
      "type": "SCALAR"
    },
    {
      "bufferView": 2,
      "byteOffset": 4718352,
      "componentType": 5126,
      "count": 65534,
      "max": [
        4.886340618133545,
        1.0251002311706543,
        4.995756149291992
      ],
      "min": [
        -5.049212455749512,
        -0.3590087890625,
        -4.950732231140137
      ],
      "type": "VEC3"
    },
    {
      "bufferView": 2,
      "byteOffset": 5504760,
      "componentType": 5126,
      "count": 65534,
      "max": [
        0.9999998807907104,
        0.9999955296516418,
        0.9999681711196899
      ],
      "min": [
        -0.9999836683273315,
        -0.9973720908164978,
        -0.9999918937683105
      ],
      "type": "VEC3"
    },
    {
      "bufferView": 1,
      "byteOffset": 1572784,
      "componentType": 5126,
      "count": 65534,
      "max": [
        0.9996083378791809,
        0.9996569156646729
      ],
      "min": [
        0.0003306210564915091,
        0.0004949569702148438
      ],
      "type": "VEC2"
    },
    {
      "bufferView": 0,
      "byteOffset": 3083376,
      "componentType": 5125,
      "count": 189312,
      "type": "SCALAR"
    },
    {
      "bufferView": 2,
      "byteOffset": 6291168,
      "componentType": 5126,
      "count": 65534,
      "max": [
        4.8878679275512695,
        1.0587611198425293,
        5.0323920249938965
      ],
      "min": [
        -5.045861721038818,
        -0.35845422744750977,
        -4.954648017883301
      ],
      "type": "VEC3"
    },
    {
      "bufferView": 2,
      "byteOffset": 7077576,
      "componentType": 5126,
      "count": 65534,
      "max": [
        0.9999908804893494,
        0.9999955296516418,
        0.9999681711196899
      ],
      "min": [
        -0.9999836683273315,
        -0.9990221261978149,
        -0.9999918937683105
      ],
      "type": "VEC3"
    },
    {
      "bufferView": 1,
      "byteOffset": 2097056,
      "componentType": 5126,
      "count": 65534,
      "max": [
        0.9996764659881592,
        0.9996747970581055
      ],
      "min": [
        0.0003238678618799895,
        0.0004877448081970215
      ],
      "type": "VEC2"
    },
    {
      "bufferView": 0,
      "byteOffset": 3840624,
      "componentType": 5125,
      "count": 125922,
      "type": "SCALAR"
    },
    {
      "bufferView": 2,
      "byteOffset": 7863984,
      "componentType": 5126,
      "count": 65532,
      "max": [
        4.878697872161865,
        1.0436348915100098,
        5.023711204528809
      ],
      "min": [
        -5.041239261627197,
        -0.36264127492904663,
        -4.947890758514404
      ],
      "type": "VEC3"
    },
    {
      "bufferView": 2,
      "byteOffset": 8650368,
      "componentType": 5126,
      "count": 65532,
      "max": [
        0.9999445676803589,
        0.9999955296516418,
        0.999862015247345
      ],
      "min": [
        -0.9998434782028198,
        -0.9990221261978149,
        -0.999947190284729
      ],
      "type": "VEC3"
    },
    {
      "bufferView": 1,
      "byteOffset": 2621328,
      "componentType": 5126,
      "count": 65532,
      "max": [
        0.9996613264083862,
        0.9996767640113831
      ],
      "min": [
        0.0003244297986384481,
        0.00048661231994628906
      ],
      "type": "VEC2"
    },
    {
      "bufferView": 0,
      "byteOffset": 4344312,
      "componentType": 5125,
      "count": 85386,
      "type": "SCALAR"
    },
    {
      "bufferView": 2,
      "byteOffset": 9436752,
      "componentType": 5126,
      "count": 18103,
      "max": [
        4.880495548248291,
        1.0072165727615356,
        4.989329814910889
      ],
      "min": [
        -5.044175148010254,
        -0.32376357913017273,
        -4.9465012550354
      ],
      "type": "VEC3"
    },
    {
      "bufferView": 2,
      "byteOffset": 9653988,
      "componentType": 5126,
      "count": 18103,
      "max": [
        0.9997002482414246,
        0.9999938011169434,
        0.9998199343681335
      ],
      "min": [
        -0.9996896982192993,
        -0.9990221261978149,
        -0.9999918937683105
      ],
      "type": "VEC3"
    },
    {
      "bufferView": 1,
      "byteOffset": 3145584,
      "componentType": 5126,
      "count": 18103,
      "max": [
        0.9996530413627625,
        0.9996650218963623
      ],
      "min": [
        0.0003341307456139475,
        0.0005112886428833008
      ],
      "type": "VEC2"
    },
    {
      "bufferView": 0,
      "byteOffset": 4685856,
      "componentType": 5125,
      "count": 20277,
      "type": "SCALAR"
    }
  ],
  "asset": {
    "extras": {
      "author": "ஜCIHIRISஜ (https://sketchfab.com/crazy4creativity)",
      "license": "CC-BY-4.0 (http://creativecommons.org/licenses/by/4.0/)",
      "source": "https://sketchfab.com/3d-models/autumn-leaf-pile-f04bb8b8d27a486a84d8b59af8d7b81b",
      "title": "Autumn Leaf Pile"
    },
    "generator": "Sketchfab-11.99.0",
    "version": "2.0"
  },
  "bufferViews": [
    {
      "buffer": 0,
      "byteLength": 4766964,
      "name": "floatBufferViews",
      "target": 34963
    },
    {
      "buffer": 0,
      "byteLength": 3290408,
      "byteOffset": 4766964,
      "byteStride": 8,
      "name": "floatBufferViews",
      "target": 34962
    },
    {
      "buffer": 0,
      "byteLength": 9871224,
      "byteOffset": 8057372,
      "byteStride": 12,
      "name": "floatBufferViews",
      "target": 34962
    }
  ],
  "buffers": [
    {
      "byteLength": 17928596,
      "uri": "scene.bin"
    }
  ],
  "images": [
    {
      "uri": "textures/Material0_baseColor.jpeg"
    }
  ],
  "materials": [
    {
      "doubleSided": true,
      "name": "Material0",
      "pbrMetallicRoughness": {
        "baseColorTexture": {
          "index": 0
        },
        "metallicFactor": 0.0
      }
    }
  ],
  "meshes": [
    {
      "name": "Stereo textured mesh_Material0_0",
      "primitives": [
        {
          "attributes": {
            "NORMAL": 1,
            "POSITION": 0,
            "TEXCOORD_0": 2
          },
          "indices": 3,
          "material": 0,
          "mode": 4
        }
      ]
    },
    {
      "name": "Stereo textured mesh_Material0_0",
      "primitives": [
        {
          "attributes": {
            "NORMAL": 5,
            "POSITION": 4,
            "TEXCOORD_0": 6
          },
          "indices": 7,
          "material": 0,
          "mode": 4
        }
      ]
    },
    {
      "name": "Stereo textured mesh_Material0_0",
      "primitives": [
        {
          "attributes": {
            "NORMAL": 9,
            "POSITION": 8,
            "TEXCOORD_0": 10
          },
          "indices": 11,
          "material": 0,
          "mode": 4
        }
      ]
    },
    {
      "name": "Stereo textured mesh_Material0_0",
      "primitives": [
        {
          "attributes": {
            "NORMAL": 13,
            "POSITION": 12,
            "TEXCOORD_0": 14
          },
          "indices": 15,
          "material": 0,
          "mode": 4
        }
      ]
    },
    {
      "name": "Stereo textured mesh_Material0_0",
      "primitives": [
        {
          "attributes": {
            "NORMAL": 17,
            "POSITION": 16,
            "TEXCOORD_0": 18
          },
          "indices": 19,
          "material": 0,
          "mode": 4
        }
      ]
    },
    {
      "name": "Stereo textured mesh_Material0_0",
      "primitives": [
        {
          "attributes": {
            "NORMAL": 21,
            "POSITION": 20,
            "TEXCOORD_0": 22
          },
          "indices": 23,
          "material": 0,
          "mode": 4
        }
      ]
    },
    {
      "name": "Stereo textured mesh_Material0_0",
      "primitives": [
        {
          "attributes": {
            "NORMAL": 25,
            "POSITION": 24,
            "TEXCOORD_0": 26
          },
          "indices": 27,
          "material": 0,
          "mode": 4
        }
      ]
    }
  ],
  "nodes": [
    {
      "children": [
        1
      ],
      "matrix": [
        1.0,
        0.0,
        0.0,
        0.0,
        0.0,
        -0.9998804330825806,
        0.015463667921721713,
        0.0,
        0.0,
        -0.015463667921721713,
        -0.9998804330825806,
        0.0,
        0.0,
        -0.3882158994674683,
        0.31386461853981007,
        1.0
      ],
      "name": "Sketchfab_model"
    },
    {
      "children": [
        2
      ],
      "matrix": [
        1.0,
        0.0,
        0.0,
        0.0,
        0.0,
        -1.0,
        0.0,
        0.0,
        0.0,
        0.0,
        -1.0,
        0.0,
        0.0,
        0.0,
        0.0,
        1.0
      ],
      "name": "sketchfabTemp.obj.fbx"
    },
    {
      "children": [
        3
      ],
      "name": "RootNode"
    },
    {
      "children": [
        4,
        5,
        6,
        7,
        8,
        9,
        10
      ],
      "name": "Stereo textured mesh"
    },
    {
      "mesh": 0,
      "name": "Stereo textured mesh_Material0_0"
    },
    {
      "mesh": 1,
      "name": "Stereo textured mesh_Material0_0"
    },
    {
      "mesh": 2,
      "name": "Stereo textured mesh_Material0_0"
    },
    {
      "mesh": 3,
      "name": "Stereo textured mesh_Material0_0"
    },
    {
      "mesh": 4,
      "name": "Stereo textured mesh_Material0_0"
    },
    {
      "mesh": 5,
      "name": "Stereo textured mesh_Material0_0"
    },
    {
      "mesh": 6,
      "name": "Stereo textured mesh_Material0_0"
    }
  ],
  "samplers": [
    {
      "magFilter": 9729,
      "minFilter": 9987,
      "wrapS": 10497,
      "wrapT": 10497
    }
  ],
  "scene": 0,
  "scenes": [
    {
      "name": "Sketchfab_Scene",
      "nodes": [
        0
      ]
    }
  ],
  "textures": [
    {
      "sampler": 0,
      "source": 0
    }
  ]
}
