{
  "accessors": [
    {
      "bufferView": 2,
      "componentType": 5126,
      "count": 10694,
      "max": [
        2.5893609523773193,
        -1.0404059886932373,
        3.3247768878936768
      ],
      "min": [
        -1.8499670028686523,
        -3.2862119674682617,
        1.700495958328247
      ],
      "type": "VEC3"
    },
    {
      "bufferView": 2,
      "byteOffset": 128328,
      "componentType": 5126,
      "count": 10694,
      "max": [
        0.9805077910423279,
        0.9987577795982361,
        0.9996020197868347
      ],
      "min": [
        -0.9996950030326843,
        -0.9995128512382507,
        -0.9995563626289368
      ],
      "type": "VEC3"
    },
    {
      "bufferView": 1,
      "componentType": 5126,
      "count": 10694,
      "max": [
        0.9638879895210266,
        0.8569740056991577
      ],
      "min": [
        0.10386499762535095,
        0.1383959949016571
      ],
      "type": "VEC2"
    },
    {
      "bufferView": 0,
      "componentType": 5125,
      "count": 56376,
      "type": "SCALAR"
    }
  ],
  "asset": {
    "extras": {
      "author": "3Dee (https://sketchfab.com/mellydeeis)",
      "license": "CC-BY-4.0 (http://creativecommons.org/licenses/by/4.0/)",
      "source": "https://sketchfab.com/3d-models/a-single-plant-leaf-5d1d3453adb94e3e88c8658ae4736ac9",
      "title": "a Single Plant Leaf"
    },
    "generator": "Sketchfab-11.49.7",
    "version": "2.0"
  },
  "bufferViews": [
    {
      "buffer": 0,
      "byteLength": 225504,
      "name": "floatBufferViews",
      "target": 34963
    },
    {
      "buffer": 0,
      "byteLength": 85552,
      "byteOffset": 225504,
      "byteStride": 8,
      "name": "floatBufferViews",
      "target": 34962
    },
    {
      "buffer": 0,
      "byteLength": 256656,
      "byteOffset": 311056,
      "byteStride": 12,
      "name": "floatBufferViews",
      "target": 34962
    }
  ],
  "buffers": [
    {
      "byteLength": 567712,
      "uri": "scene.bin"
    }
  ],
  "images": [
    {
      "uri": "textures/Material_baseColor.png"
    },
    {
      "uri": "textures/Material_metallicRoughness.png"
    }
  ],
  "materials": [
    {
      "doubleSided": true,
      "name": "Material",
      "occlusionTexture": {
        "index": 1,
        "strength": 0.6027397260273972
      },
      "pbrMetallicRoughness": {
        "baseColorFactor": [
          0.5966514459665144,
          0.5966514459665144,
          0.5966514459665144,
          1.0
        ],
        "baseColorTexture": {
          "index": 0
        },
        "metallicFactor": 0.0243531202435312,
        "metallicRoughnessTexture": {
          "index": 1
        }
      }
    }
  ],
  "meshes": [
    {
      "name": "Object_0",
      "primitives": [
        {
          "attributes": {
            "NORMAL": 1,
            "POSITION": 0,
            "TEXCOORD_0": 2
          },
          "indices": 3,
          "material": 0,
          "mode": 4
        }
      ]
    }
  ],
  "nodes": [
    {
      "children": [
        1
      ],
      "matrix": [
        1.0,
        0.0,
        0.0,
        0.0,
        0.0,
        2.220446049250313e-16,
        -1.0,
        0.0,
        0.0,
        1.0,
        2.220446049250313e-16,
        0.0,
        0.0,
        0.0,
        0.0,
        1.0
      ],
      "name": "Sketchfab_model"
    },
    {
      "children": [
        2
      ],
      "name": "Leaf_a_24.obj.cleaner.materialmerger.gles"
    },
    {
      "mesh": 0,
      "name": "Object_2"
    }
  ],
  "samplers": [
    {
      "magFilter": 9729,
      "minFilter": 9987,
      "wrapS": 10497,
      "wrapT": 10497
    }
  ],
  "scene": 0,
  "scenes": [
    {
      "name": "Sketchfab_Scene",
      "nodes": [
        0
      ]
    }
  ],
  "textures": [
    {
      "sampler": 0,
      "source": 0
    },
    {
      "sampler": 0,
      "source": 1
    }
  ]
}
