{
  "accessors": [
    {
      "bufferView": 2,
      "componentType": 5126,
      "count": 6705,
      "max": [
        4.536349296569824,
        2.6091980934143066,
        1.7815369367599487
      ],
      "min": [
        -4.35166072845459,
        0.4479508101940155,
        -1.7815412282943726
      ],
      "type": "VEC3"
    },
    {
      "bufferView": 2,
      "byteOffset": 80460,
      "componentType": 5126,
      "count": 6705,
      "max": [
        1.0,
        1.0,
        1.0
      ],
      "min": [
        -1.0,
        -1.0,
        -1.0
      ],
      "type": "VEC3"
    },
    {
      "bufferView": 1,
      "componentType": 5126,
      "count": 6705,
      "max": [
        1.0000003576278687,
        1.0011837482452393
      ],
      "min": [
        -1.4394876401979673e-09,
        0.0
      ],
      "type": "VEC2"
    },
    {
      "bufferView": 0,
      "componentType": 5125,
      "count": 28869,
      "type": "SCALAR"
    },
    {
      "bufferView": 2,
      "byteOffset": 160920,
      "componentType": 5126,
      "count": 822,
      "max": [
        3.7698636054992676,
        2.4497756958007813,
        1.6909339427947998
      ],
      "min": [
        -4.281068325042725,
        0.9919072985649109,
        -1.6909377574920654
      ],
      "type": "VEC3"
    },
    {
      "bufferView": 2,
      "byteOffset": 170784,
      "componentType": 5126,
      "count": 822,
      "max": [
        0.75462806224823,
        1.0,
        0.8777139782905579
      ],
      "min": [
        -0.8514627814292908,
        -1.0,
        -0.8777276873588562
      ],
      "type": "VEC3"
    },
    {
      "bufferView": 1,
      "byteOffset": 53640,
      "componentType": 5126,
      "count": 822,
      "max": [
        1.0000001192092896,
        1.000000238418579
      ],
      "min": [
        0.0,
        0.0
      ],
      "type": "VEC2"
    },
    {
      "bufferView": 0,
      "byteOffset": 115476,
      "componentType": 5125,
      "count": 2580,
      "type": "SCALAR"
    },
    {
      "bufferView": 2,
      "byteOffset": 180648,
      "componentType": 5126,
      "count": 65532,
      "max": [
        4.747252941131592,
        2.4694528579711914,
        1.7702021598815918
      ],
      "min": [
        -4.495729923248291,
        0.23071090877056122,
        -1.7702078819274902
      ],
      "type": "VEC3"
    },
    {
      "bufferView": 2,
      "byteOffset": 967032,
      "componentType": 5126,
      "count": 65532,
      "max": [
        1.0,
        1.0,
        1.0
      ],
      "min": [
        -1.0,
        -1.0,
        -1.0
      ],
      "type": "VEC3"
    },
    {
      "bufferView": 1,
      "byteOffset": 60216,
      "componentType": 5126,
      "count": 65532,
      "max": [
        1.0000001192092896,
        1.0000014305114746
      ],
      "min": [
        0.0,
        0.0
      ],
      "type": "VEC2"
    },
    {
      "bufferView": 0,
      "byteOffset": 125796,
      "componentType": 5125,
      "count": 150765,
      "type": "SCALAR"
    },
    {
      "bufferView": 2,
      "byteOffset": 1753416,
      "componentType": 5126,
      "count": 23710,
      "max": [
        4.753480911254883,
        2.298567771911621,
        1.7623382806777954
      ],
      "min": [
        -4.501688480377197,
        0.23071105778217316,
        -1.762341022491455
      ],
      "type": "VEC3"
    },
    {
      "bufferView": 2,
      "byteOffset": 2037936,
      "componentType": 5126,
      "count": 23710,
      "max": [
        1.0,
        1.0,
        1.0
      ],
      "min": [
        -1.0,
        -1.0,
        -1.0
      ],
      "type": "VEC3"
    },
    {
      "bufferView": 1,
      "byteOffset": 584472,
      "componentType": 5126,
      "count": 23710,
      "max": [
        1.0,
        1.0
      ],
      "min": [
        0.0,
        -0.004330455791205168
      ],
      "type": "VEC2"
    },
    {
      "bufferView": 0,
      "byteOffset": 728856,
      "componentType": 5125,
      "count": 47973,
      "type": "SCALAR"
    },
    {
      "bufferView": 2,
      "byteOffset": 2322456,
      "componentType": 5126,
      "count": 10194,
      "max": [
        4.452930927276611,
        1.436991572380066,
        1.7078702449798584
      ],
      "min": [
        -4.239160537719727,
        -2.7767368919739965e-06,
        -1.7078741788864136
      ],
      "type": "VEC3"
    },
    {
      "bufferView": 2,
      "byteOffset": 2444784,
      "componentType": 5126,
      "count": 10194,
      "max": [
        1.0,
        1.0,
        1.0
      ],
      "min": [
        -1.0,
        -1.0,
        -1.0
      ],
      "type": "VEC3"
    },
    {
      "bufferView": 1,
      "byteOffset": 774152,
      "componentType": 5126,
      "count": 10194,
      "max": [
        1.0,
        1.0
      ],
      "min": [
        0.0,
        -4.440892098500626e-16
      ],
      "type": "VEC2"
    },
    {
      "bufferView": 0,
      "byteOffset": 920748,
      "componentType": 5125,
      "count": 34008,
      "type": "SCALAR"
    },
    {
      "bufferView": 2,
      "byteOffset": 2567112,
      "componentType": 5126,
      "count": 32,
      "max": [
        -4.255684852600098,
        0.9553094506263733,
        0.047736600041389465
      ],
      "min": [
        -4.255684852600098,
        0.8598334193229675,
        -0.047739479690790176
      ],
      "type": "VEC3"
    },
    {
      "bufferView": 2,
      "byteOffset": 2567496,
      "componentType": 5126,
      "count": 32,
      "max": [
        0.9785799980163574,
        0.20588436722755432,
        0.20588436722755432
      ],
      "min": [
        0.9785712957382202,
        -0.20588436722755432,
        -0.20588436722755432
      ],
      "type": "VEC3"
    },
    {
      "bufferView": 1,
      "byteOffset": 855704,
      "componentType": 5126,
      "count": 32,
      "max": [
        0.989425778388977,
        0.9901622533798218
      ],
      "min": [
        0.008736586198210716,
        0.009474486112594604
      ],
      "type": "VEC2"
    },
    {
      "bufferView": 0,
      "byteOffset": 1056780,
      "componentType": 5125,
      "count": 90,
      "type": "SCALAR"
    },
    {
      "bufferView": 2,
      "byteOffset": 2567880,
      "componentType": 5126,
      "count": 55049,
      "max": [
        4.490534782409668,
        1.2664673328399658,
        1.6827045679092407
      ],
      "min": [
        -4.005151748657227,
        0.9930540323257446,
        -1.6827083826065063
      ],
      "type": "VEC3"
    },
    {
      "bufferView": 2,
      "byteOffset": 3228468,
      "componentType": 5126,
      "count": 55049,
      "max": [
        0.9980601668357849,
        0.9999909400939941,
        0.9999086856842041
      ],
      "min": [
        -0.9980526566505432,
        -0.9999994039535522,
        -0.9999089241027832
      ],
      "type": "VEC3"
    },
    {
      "bufferView": 1,
      "byteOffset": 855960,
      "componentType": 5126,
      "count": 55049,
      "max": [
        0.0,
        0.0
      ],
      "min": [
        0.0,
        0.0
      ],
      "type": "VEC2"
    },
    {
      "bufferView": 0,
      "byteOffset": 1057140,
      "componentType": 5125,
      "count": 87324,
      "type": "SCALAR"
    },
    {
      "bufferView": 2,
      "byteOffset": 3889056,
      "componentType": 5126,
      "count": 16608,
      "max": [
        4.502251625061035,
        1.2664672136306763,
        0.8363633155822754
      ],
      "min": [
        4.4515228271484375,
        1.1852900981903076,
        -0.8363668322563171
      ],
      "type": "VEC3"
    },
    {
      "bufferView": 2,
      "byteOffset": 4088352,
      "componentType": 5126,
      "count": 16608,
      "max": [
        0.9891514778137207,
        0.9947588443756104,
        0.7689307928085327
      ],
      "min": [
        -0.992790937423706,
        -0.994616687297821,
        -0.7689708471298218
      ],
      "type": "VEC3"
    },
    {
      "bufferView": 1,
      "byteOffset": 1296352,
      "componentType": 5126,
      "count": 16608,
      "max": [
        0.0,
        0.0
      ],
      "min": [
        0.0,
        0.0
      ],
      "type": "VEC2"
    },
    {
      "bufferView": 0,
      "byteOffset": 1406436,
      "componentType": 5125,
      "count": 24972,
      "type": "SCALAR"
    }
  ],
  "asset": {
    "extras": {
      "author": "Nommoc (https://sketchfab.com/kikumi)",
      "license": "CC-BY-4.0 (http://creativecommons.org/licenses/by/4.0/)",
      "source": "https://sketchfab.com/3d-models/jaguar-e-type-32aa25ea6e1b40f395b2aff33ca0a279",
      "title": "Jaguar E_TYPE"
    },
    "generator": "Sketchfab-11.73.0",
    "version": "2.0"
  },
  "bufferViews": [
    {
      "buffer": 0,
      "byteLength": 1506324,
      "name": "floatBufferViews",
      "target": 34963
    },
    {
      "buffer": 0,
      "byteLength": 1429216,
      "byteOffset": 1506324,
      "byteStride": 8,
      "name": "floatBufferViews",
      "target": 34962
    },
    {
      "buffer": 0,
      "byteLength": 4287648,
      "byteOffset": 2935540,
      "byteStride": 12,
      "name": "floatBufferViews",
      "target": 34962
    }
  ],
  "buffers": [
    {
      "byteLength": 7223188,
      "uri": "scene.bin"
    }
  ],
  "images": [
    {
      "uri": "textures/logo_baseColor.png"
    }
  ],
  "materials": [
    {
      "doubleSided": true,
      "name": "body",
      "pbrMetallicRoughness": {
        "baseColorFactor": [
          0.233012,
          0.214393,
          0.163872,
          1.0
        ],
        "roughnessFactor": 0.1
      }
    },
    {
      "alphaMode": "BLEND",
      "doubleSided": true,
      "name": "glass",
      "pbrMetallicRoughness": {
        "baseColorFactor": [
          0.8,
          0.8,
          0.8,
          0.1
        ],
        "metallicFactor": 0.0,
        "roughnessFactor": 0.0
      }
    },
    {
      "doubleSided": true,
      "name": "flame",
      "pbrMetallicRoughness": {
        "roughnessFactor": 0.0
      }
    },
    {
      "doubleSided": true,
      "name": "black",
      "pbrMetallicRoughness": {
        "baseColorFactor": [
          0.0,
          0.0,
          0.0,
          1.0
        ],
        "metallicFactor": 0.0
      }
    },
    {
      "doubleSided": true,
      "name": "logo",
      "pbrMetallicRoughness": {
        "baseColorTexture": {
          "index": 0
        },
        "metallicFactor": 0.0,
        "roughnessFactor": 0.5
      }
    },
    {
      "doubleSided": true,
      "name": "yellow",
      "pbrMetallicRoughness": {
        "baseColorFactor": [
          1.0,
          0.168891,
          0.0,
          1.0
        ],
        "metallicFactor": 0.0
      }
    },
    {
      "doubleSided": true,
      "name": "material",
      "pbrMetallicRoughness": {
        "baseColorFactor": [
          1.0,
          0.00642179,
          0.0,
          1.0
        ],
        "metallicFactor": 0.0,
        "roughnessFactor": 0.5
      }
    }
  ],
  "meshes": [
    {
      "name": "Object_0",
      "primitives": [
        {
          "attributes": {
            "NORMAL": 1,
            "POSITION": 0,
            "TEXCOORD_0": 2
          },
          "indices": 3,
          "material": 0,
          "mode": 4
        }
      ]
    },
    {
      "name": "Object_1",
      "primitives": [
        {
          "attributes": {
            "NORMAL": 5,
            "POSITION": 4,
            "TEXCOORD_0": 6
          },
          "indices": 7,
          "material": 1,
          "mode": 4
        }
      ]
    },
    {
      "name": "Object_2",
      "primitives": [
        {
          "attributes": {
            "NORMAL": 9,
            "POSITION": 8,
            "TEXCOORD_0": 10
          },
          "indices": 11,
          "material": 2,
          "mode": 4
        }
      ]
    },
    {
      "name": "Object_3",
      "primitives": [
        {
          "attributes": {
            "NORMAL": 13,
            "POSITION": 12,
            "TEXCOORD_0": 14
          },
          "indices": 15,
          "material": 2,
          "mode": 4
        }
      ]
    },
    {
      "name": "Object_4",
      "primitives": [
        {
          "attributes": {
            "NORMAL": 17,
            "POSITION": 16,
            "TEXCOORD_0": 18
          },
          "indices": 19,
          "material": 3,
          "mode": 4
        }
      ]
    },
    {
      "name": "Object_5",
      "primitives": [
        {
          "attributes": {
            "NORMAL": 21,
            "POSITION": 20,
            "TEXCOORD_0": 22
          },
          "indices": 23,
          "material": 4,
          "mode": 4
        }
      ]
    },
    {
      "name": "Object_6",
      "primitives": [
        {
          "attributes": {
            "NORMAL": 25,
            "POSITION": 24,
            "TEXCOORD_0": 26
          },
          "indices": 27,
          "material": 5,
          "mode": 4
        }
      ]
    },
    {
      "name": "Object_7",
      "primitives": [
        {
          "attributes": {
            "NORMAL": 29,
            "POSITION": 28,
            "TEXCOORD_0": 30
          },
          "indices": 31,
          "material": 6,
          "mode": 4
        }
      ]
    }
  ],
  "nodes": [
    {
      "children": [
        1
      ],
      "matrix": [
        0.49004048109054565,
        0.0,
        0.0,
        0.0,
        0.0,
        1.0881084502102249e-16,
        -0.49004048109054565,
        0.0,
        0.0,
        0.49004048109054565,
        1.0881084502102249e-16,
        0.0,
        0.0,
        0.0,
        0.0,
        1.0
      ],
      "name": "Sketchfab_model"
    },
    {
      "children": [
        2
      ],
      "name": "root"
    },
    {
      "children": [
        3
      ],
      "matrix": [
        1.0,
        0.0,
        0.0,
        0.0,
        0.0,
        2.220446049250313e-16,
        1.0,
        0.0,
        0.0,
        -1.0,
        2.220446049250313e-16,
        0.0,
        0.0,
        0.0,
        0.0,
        1.0
      ],
      "name": "GLTF_SceneRootNode"
    },
    {
      "children": [
        4,
        5,
        6,
        7,
        8,
        9,
        10,
        11
      ],
      "name": "Plane_0"
    },
    {
      "mesh": 0,
      "name": "Object_4"
    },
    {
      "mesh": 1,
      "name": "Object_5"
    },
    {
      "mesh": 2,
      "name": "Object_6"
    },
    {
      "mesh": 3,
      "name": "Object_7"
    },
    {
      "mesh": 4,
      "name": "Object_8"
    },
    {
      "mesh": 5,
      "name": "Object_9"
    },
    {
      "mesh": 6,
      "name": "Object_10"
    },
    {
      "mesh": 7,
      "name": "Object_11"
    }
  ],
  "samplers": [
    {
      "magFilter": 9729,
      "minFilter": 9987,
      "wrapS": 10497,
      "wrapT": 10497
    }
  ],
  "scene": 0,
  "scenes": [
    {
      "name": "Sketchfab_Scene",
      "nodes": [
        0
      ]
    }
  ],
  "textures": [
    {
      "sampler": 0,
      "source": 0
    }
  ]
}
